P3
16 1
255
#Name: Atari Mode E Pal Blend per Popmilo
#
  0   0   0 #000000
 50  50  50 #323232
 85  85  85 #555555
119 119 119 #777777
 38   7  14 #26070e
110  48  63 #6e303f
144  82  97 #905261
165 116 131 #a57483
 10  14  79 #0a0e4f
 51  63 137 #333f89
 85  97 171 #5561ab
119 131 179 #7783b3
 15  31   0 #0f1f00
 68  83  13 #44530d
102 117  47 #66752f
136 151  81 #889751
